# xmcd
#
# Track frame offsets:
#	150
#	9547
#	19106
#	28460
#	38296
#	48610
#	58894
#	69413
#	79072
#	89464
#	99288
#	110856
#
# Disc length: 1595 seconds
#
# Revision: 1
# Processed by: cddbd v1.5.2PL0 Copyright (c) Steve Scherf et al.
# Submitted via: audiograbber 1.83.01
#
DISCID=9a06390c
DTITLE=Dave Dudley - Truck Drivin' Son Of A Gun
DYEAR=1900
DGENRE=Country
TTITLE0=Truck drivin' son of a gun
TTITLE1=Two six packs away
TTITLE2=Just a few more miles
TTITLE3=Quittin' time
TTITLE4=Operation X
TTITLE5=DJ Memphis Joe
TTITLE6=I got lost
TTITLE7=Wreck of the old slow binder
TTITLE8=Jack Knife
TTITLE9=Sugarland USA
TTITLE10=Truck driver's waltz
TTITLE11=Speed traps weigh stations and detour signs
EXTD=
EXTT0=
EXTT1=
EXTT2=
EXTT3=
EXTT4=
EXTT5=
EXTT6=
EXTT7=
EXTT8=
EXTT9=
EXTT10=
EXTT11=
PLAYORDER=
